<svg xmlns="http://www.w3.org/2000/svg" xmlns:xlink="http://www.w3.org/1999/xlink" fill="#000000" width="28" height="28" viewBox="0 0 100 100" version="1.1" xml:space="preserve">


<g id="spray">

<g>

<path d="M65,46c-1.1,0-2-0.9-2-2v-6c0-0.6-0.4-1-1-1h-2v-5c0-0.6-0.4-1-1-1h-2v-1.8c0-2.5,1-4.8,2.7-6.5s4.1-2.7,6.5-2.7H76    c0.4,0,0.8-0.3,0.9-0.6c0.1-0.4,0-0.8-0.3-1.1l-16-14C60.5,4.1,60.2,4,60,4H24c-0.6,0-1,0.4-1,1v9c0,0.6,0.4,1,1,1h11.4    c0.9,0,1.8,0.2,2.6,0.5c-0.1,1.7-0.9,7.3-6.4,9.6c-0.4,0.2-0.7,0.7-0.6,1.1c0.1,0.5,0.5,0.8,1,0.8c0.3,0,6.7,0,11-1.5l0,5.5h-2    c-0.6,0-1,0.4-1,1v5h-2c-0.6,0-1,0.4-1,1v6c0,1.1-0.9,2-2,2c-7.2,0-13,5.8-13,13v24c0,7.2,5.8,13,13,13h30c7.2,0,13-5.8,13-13V59    C78,51.8,72.2,46,65,46z M25,6h4v7h-4V6z M35.7,24.8c3-2.7,3.9-6.3,4.2-8.3c0.7,0.5,1.3,1.2,1.8,1.9c0.8,1.2,1.3,2.7,1.3,4.2    l0,0.8C40.9,24.2,38,24.6,35.7,24.8z M45,24C45,24,45,23.9,45,24l0-1.4c0-1.9-0.6-3.7-1.6-5.3c-1.8-2.7-4.8-4.3-8-4.3H31V6h28.6    l13.7,12h-7.1c-3,0-5.8,1.2-7.9,3.3S55,26.2,55,29.2V31H45L45,24z M42,33h2h12h2v4H42V33z M76,83c0,6.1-4.9,11-11,11H35    c-6.1,0-11-4.9-11-11V59c0-6.1,4.9-11,11-11c2.2,0,4-1.8,4-4v-5h2h18h2v5c0,2.2,1.8,4,4,4c6.1,0,11,4.9,11,11V83z"/>

<path d="M66,57H34c-2.8,0-5,2.2-5,5v18c0,2.8,2.2,5,5,5h32c2.8,0,5-2.2,5-5V62C71,59.2,68.8,57,66,57z M69,80c0,1.7-1.3,3-3,3H34    c-1.7,0-3-1.3-3-3V62c0-1.7,1.3-3,3-3h32c1.7,0,3,1.3,3,3V80z"/>

</g>

</g>

</svg>